HIERARCHY
ROOT Hips
{
	OFFSET 0.00000 0.00000 0.00000
	CHANNELS 6 Xposition Yposition Zposition Yrotation Zrotation Xrotation 
	JOINT Lumbar
	{
		OFFSET 0 0 0
		CHANNELS 3 Zrotation Xrotation Yrotation
		JOINT Neck
		{
			OFFSET 0.00 0.2701 0.00
			CHANNELS 3 Zrotation Xrotation Yrotation
			End Site
			{
				OFFSET 0.00 0.1379 0.00
			}
		}
		JOINT RightShoulder
		{
			OFFSET 0.0119 0.2289 0.1181
			CHANNELS 3 Zrotation Xrotation Yrotation
			JOINT RightElbow
			{
				OFFSET 0.00 -0.1475 0.00
				CHANNELS 2 Zrotation Yrotation
				JOINT RightWrist
				{
					OFFSET 0.00 -0.1605 0.00
					CHANNELS 2 Zrotation Xrotation
					End Site
					{
						OFFSET 0.0040 -0.1068 0.0006
					}
				}
			}
		}
		JOINT LeftShoulder
		{
			OFFSET 0.0119 0.2289 -0.1181
			CHANNELS 3 Zrotation Xrotation Yrotation
			JOINT LeftElbow
			{
				OFFSET 0.00 -0.1475 0.00
				CHANNELS 2 Zrotation Yrotation
				JOINT LeftWrist
				{
					OFFSET 0.00 -0.1605 0.00
					CHANNELS 2 Zrotation Xrotation
					End Site
					{
						OFFSET 0.0040 -0.1068 -0.0006
					}
				}
			}
		}
	}
	JOINT RightHip
	{
		OFFSET 0.0316 -0.0424 0.0458
		CHANNELS 3 Zrotation Xrotation Yrotation
		JOINT RightKnee
		{
			OFFSET 0.00 -0.2438 0.00
			CHANNELS 1 Zrotation
			JOINT RightAnkle
			{
				OFFSET 0.00 -0.2449 0.00
				CHANNELS 3 Zrotation Xrotation Yrotation
				End Site
				{
					OFFSET 0.1237 -0.0542 0.0051
				}
			}
		}
	}
	JOINT LeftHip
	{
		OFFSET 0.0316 -0.0424 -0.0458
		CHANNELS 3 Zrotation Xrotation Yrotation
		JOINT LeftKnee
		{
			OFFSET 0.00 -0.2438 0.00
			CHANNELS 1 Zrotation
			JOINT LeftAnkle
			{
				OFFSET 0.00 -0.2449 0.00
				CHANNELS 3 Zrotation Xrotation Yrotation
				End Site
				{
					OFFSET 0.1237 -0.0542 -0.0051
				}
			}
		}
	}
}
MOTION
Frames: 25
Frame Time: 0.02
0.00015 0 -0.00017 -179.82145 -33.75695 -3.17159 43.04406 3.28226 -4.89714 -15.41786 -1.1179 -1.20417 40.82519 -100.22343 55.63246 6.76404 92.0919 8.56714 0.48872 42.96002 100.70717 -55.63709 6.32652 -89.33835 6.68024 0.17591 36.91074 -3.38604 -9.00757 -22.13408 -6.68189 -2.147 -3.28648 41.19841 10.18158 5.65382 -27.44504 -6.82039 2.21746 3.32633
5e-05 -1e-05 -0.0001 -179.82683 -33.75291 -3.17724 43.0402 3.29011 -4.88029 -15.42602 -1.11755 -1.20484 40.92095 -100.20033 55.63246 6.74376 92.07936 8.59513 0.4947 43.07653 100.69972 -55.63648 6.31769 -89.39551 6.7205 0.18296 36.89092 -3.40921 -9.11857 -22.13371 -6.68065 -2.13811 -3.28062 41.18357 10.15912 5.56931 -27.44737 -6.8194 2.22221 3.32876
-5e-05 -1e-05 -4e-05 -179.8322 -33.74889 -3.18285 43.03634 3.29797 -4.86345 -15.43414 -1.11722 -1.20552 41.01633 -100.1773 55.63246 6.72357 92.06685 8.62301 0.50064 43.193 100.69229 -55.63587 6.30889 -89.45249 6.76062 0.18998 36.87119 -3.43234 -9.22927 -22.13337 -6.67942 -2.12923 -3.27478 41.16879 10.13678 5.48526 -27.4497 -6.81841 2.22694 3.33117
-0.00015 -2e-05 3e-05 -179.83756 -33.74485 -3.18848 43.03249 3.3058 -4.84664 -15.44227 -1.11688 -1.2062 41.11176 -100.15427 55.63245 6.70335 92.05434 8.65091 0.50659 43.30921 100.68485 -55.63526 6.30008 -89.50947 6.80076 0.19701 36.85143 -3.45545 -9.33992 -22.133 -6.67819 -2.12036 -3.26895 41.15399 10.1144 5.40105 -27.45203 -6.81743 2.23167 3.33359
-0.00025 -3e-05 0.0001 -179.84291 -33.7408 -3.19414 43.02865 3.31362 -4.82984 -15.45043 -1.11651 -1.20687 41.20767 -100.13116 55.63245 6.68303 92.04181 8.6789 0.5126 43.42532 100.67741 -55.63465 6.29126 -89.56666 6.84101 0.20409 36.83158 -3.4786 -9.45091 -22.1326 -6.67696 -2.11147 -3.26309 41.13914 10.09188 5.31625 -27.45434 -6.81643 2.23644 3.33604
-0.00035 -4e-05 0.00016 -179.84831 -33.73685 -3.19966 43.02472 3.32157 -4.81295 -15.45849 -1.11623 -1.20755 41.30197 -100.10833 55.63244 6.66315 92.02934 8.70657 0.51839 43.54253 100.67001 -55.63404 6.28252 -89.6232 6.88082 0.21099 36.81212 -3.50168 -9.561 -22.13239 -6.67574 -2.10263 -3.25729 41.1245 10.0699 5.23377 -27.45672 -6.81546 2.24107 3.33839
-0.00045 -5e-05 0.00023 -179.85365 -33.73268 -3.20545 43.021 3.32924 -4.79622 -15.46674 -1.1158 -1.20823 41.39921 -100.08496 55.63244 6.64236 92.01676 8.73488 0.5246 43.65745 100.6625 -55.63343 6.27357 -89.68094 6.92156 0.21823 36.79187 -3.52489 -9.67269 -22.1318 -6.6745 -2.0937 -3.25138 41.10942 10.04687 5.14684 -27.45897 -6.81445 2.24597 3.34091
-0.00055 -6e-05 0.0003 -179.85895 -33.72874 -3.21099 43.01706 3.33716 -4.7794 -15.47481 -1.11549 -1.2089 41.4941 -100.06209 55.63244 6.6225 92.00429 8.76256 0.53044 43.7744 100.65513 -55.63282 6.26494 -89.73762 6.96131 0.22517 36.77237 -3.54795 -9.78305 -22.13156 -6.67327 -2.08485 -3.24557 41.09482 10.0248 5.06378 -27.46134 -6.81348 2.25062 3.34329
-0.00064 -7e-05 0.00036 -179.86462 -33.725 -3.21622 43.01296 3.34543 -4.76222 -15.48267 -1.1154 -1.20958 41.58472 -100.0398 55.63244 6.60339 91.9919 8.78961 0.53575 43.89424 100.64782 -55.63223 6.25619 -89.79284 7.00037 0.23167 36.75369 -3.57094 -9.89128 -22.13171 -6.67207 -2.07609 -3.23989 41.08051 10.00394 4.98639 -27.46385 -6.81253 2.25498 3.34546
-0.00075 -8e-05 0.00043 -179.86938 -33.71987 -3.22324 43.0101 3.35183 -4.74636 -15.49179 -1.11426 -1.21027 41.69572 -100.01409 55.63243 6.57881 91.97891 8.82071 0.54389 43.99871 100.63983 -55.63156 6.24658 -89.856 7.04497 0.24048 36.73001 -3.5947 -10.01023 -22.1295 -6.67074 -2.06679 -3.23351 41.06365 9.97621 4.87919 -27.46554 -6.81136 2.26104 3.34873
-0.00083 -8e-05 0.00049 -179.87527 -33.71779 -3.22649 43.0044 3.36205 -4.72819 -15.4982 -1.1152 -1.21092 41.7664 -99.99565 55.63243 6.56652 91.96728 8.843 0.5462 44.13473 100.63347 -55.63105 6.23976 -89.90269 7.07688 0.24458 36.71708 -3.61657 -10.10752 -22.13238 -6.66968 -2.05863 -3.22858 41.05271 9.96293 4.83305 -27.46893 -6.81073 2.26351 3.34972
-0.00084 -7e-05 0.00055 -179.89065 -33.72316 -3.21907 42.99256 3.38399 -4.69967 -15.49773 -1.12298 -1.21149 41.70323 -99.99688 55.63244 6.58312 91.95853 8.84242 0.53135 44.36663 100.62998 -55.63095 6.23349 -89.90234 7.08141 0.2346 36.73233 -3.63534 -10.13671 -22.1485 -6.66938 -2.0537 -3.22777 41.05378 9.99026 4.97189 -27.47733 -6.81105 2.25612 3.3442
-0.00082 -4e-05 0.0006 -179.90588 -33.73173 -3.20788 42.97753 3.40952 -4.66956 -15.49449 -1.13265 -1.21203 41.60383 -100.00554 55.63242 6.6136 91.95125 8.8324 0.51088 44.62911 100.62841 -55.63102 6.23184 -89.88651 7.07155 0.22024 36.75861 -3.65175 -10.14551 -22.16988 -6.66935 -2.04991 -3.22841 41.06155 10.03207 5.16924 -27.48734 -6.81201 2.24511 3.33643
-0.0008 -2e-05 0.00063 -179.91708 -33.73948 -3.19865 42.9629 3.43261 -4.64277 -15.49211 -1.14075 -1.21259 41.5362 -100.01088 55.63247 6.64007 91.94399 8.82628 0.49377 44.87079 100.62702 -55.63102 6.23209 -89.87803 7.06374 0.20849 36.78078 -3.66799 -10.16958 -22.18933 -6.66922 -2.04548 -3.22828 41.06909 10.06646 5.32787 -27.4964 -6.81302 2.23585 3.32991
-0.00081 -0 0.00074 -179.94591 -33.74472 -3.18851 42.95278 3.45918 -4.605 -15.49123 -1.15189 -1.21314 41.40402 -100.01564 55.63243 6.65422 91.93415 8.8232 0.47328 45.13921 100.62123 -55.63096 6.21342 -89.8652 7.07595 0.19361 36.7993 -3.68979 -10.16922 -22.20683 -6.66906 -2.04143 -3.22857 41.06491 10.10385 5.53604 -27.50646 -6.81257 2.2263 3.32252
-0.00076 2e-05 0.0007 -179.93755 -33.75573 -3.17918 42.93242 3.47928 -4.58973 -15.48679 -1.1571 -1.2137 41.39753 -100.02381 55.63241 6.70062 91.9296 8.80978 0.45845 45.36229 100.62504 -55.63107 6.23781 -89.86148 7.0417 0.18485 36.82783 -3.69905 -10.21371 -22.22963 -6.66897 -2.03702 -3.2284 41.08655 10.13914 5.65714 -27.51475 -6.81532 2.2163 3.31627
-0.00054 8e-05 0.0003 -179.83024 -33.78362 -3.17451 42.88523 3.4812 -4.63676 -15.47127 -1.14576 -1.21428 41.75054 -100.03556 55.63294 6.80551 91.94218 8.78471 0.46124 45.42886 100.65458 -55.63158 6.35857 -89.85361 6.89448 0.18842 36.88299 -3.67757 -10.39736 -22.26582 -6.66937 -2.02984 -3.22592 41.17927 10.15879 5.50332 -27.51838 -6.82683 2.20782 3.31489
-0.00025 0.00013 -0.00025 -179.68481 -33.81685 -3.17044 42.82772 3.47644 -4.70643 -15.45264 -1.12831 -1.21487 42.23189 -100.05104 55.63292 6.94821 91.95896 8.7464 0.46999 45.45516 100.69348 -55.63221 6.52687 -89.86067 6.69915 0.19916 36.94752 -3.64291 -10.62488 -22.30715 -6.66976 -2.02253 -3.22306 41.29747 10.17688 5.26311 -27.52006 -6.84155 2.19872 3.31453
1e-05 0.00019 -0.00074 -179.55439 -33.8465 -3.16517 42.77448 3.47433 -4.76602 -15.43666 -1.11351 -1.21547 42.65057 -100.0677 55.63339 7.09043 91.97263 8.70518 0.4754 45.51307 100.72868 -55.63284 6.68695 -89.8838 6.51768 0.21056 37.0066 -3.61209 -10.82561 -22.34607 -6.66991 -2.01625 -3.22083 41.40301 10.19998 5.07632 -27.52223 -6.85474 2.18863 3.3129
0.00026 0.00025 -0.00117 -179.4337 -33.8812 -3.1639 42.72289 3.47378 -4.8251 -15.41529 -1.0994 -1.21603 43.08121 -100.07326 55.63474 7.15946 91.99364 8.70316 0.48255 45.50787 100.76282 -55.63342 6.78912 -89.81382 6.36809 0.20604 37.07104 -3.59027 -11.05474 -22.38547 -6.67111 -2.00591 -3.21672 41.51329 10.20596 4.83387 -27.52612 -6.86818 2.18361 3.31451
0.00054 0.0003 -0.00178 -179.28374 -33.90651 -3.15425 42.66547 3.46856 -4.8901 -15.40454 -1.08229 -1.21667 43.52431 -100.10174 55.63175 7.39367 91.99758 8.61414 0.4885 45.63418 100.79988 -55.63392 7.0251 -89.93663 6.14262 0.23547 37.12648 -3.5466 -11.23515 -22.42503 -6.67011 -2.00397 -3.2164 41.61976 10.24639 4.68347 -27.52595 -6.88193 2.16817 3.30977
0.00088 0.00029 -0.00281 -179.06153 -33.90532 -3.12339 42.59446 3.45047 -4.97058 -15.42297 -1.0591 -1.21752 43.91551 -100.20018 55.63694 8.04189 91.97787 8.3093 0.4813 46.04229 100.85405 -55.63421 7.6008 -90.62452 5.70444 0.36622 37.15383 -3.446 -11.27321 -22.46368 -6.66305 -2.02523 -3.22663 41.70859 10.38799 4.83079 -27.51513 -6.89512 2.12199 3.28594
0.00124 0.00026 -0.00401 -178.8112 -33.89431 -3.08369 42.51796 3.42824 -5.05542 -15.45236 -1.03293 -1.21846 44.3252 -100.31956 55.63389 8.86147 91.93688 7.91431 0.47396 46.59736 100.90783 -55.63316 8.31192 -91.49535 5.19454 0.52978 37.17186 -3.32391 -11.2607 -22.50232 -6.65377 -2.05491 -3.24066 41.79284 10.56329 5.06952 -27.50028 -6.90863 2.06571 3.25592
0.0016 0.00024 -0.00514 -178.57436 -33.88732 -3.04674 42.44404 3.40894 -5.13519 -15.47736 -1.00772 -1.21935 44.76264 -100.42504 55.62169 9.62363 91.88873 7.54568 0.47266 47.14942 100.95546 -55.63432 8.97411 -92.26354 4.72716 0.67142 37.19473 -3.21147 -11.26897 -22.54097 -6.64551 -2.08081 -3.25296 41.87974 10.71931 5.25106 -27.48724 -6.92237 2.0155 3.22963
0.00193 0.00023 -0.00624 -178.33363 -33.88251 -3.0153 42.36946 3.38486 -5.22867 -15.49983 -0.98411 -1.22024 45.05207 -100.5514 55.66456 10.29929 91.90916 7.23475 0.44772 47.44582 101.03373 -55.63392 9.58865 -93.1304 4.21566 0.84038 37.21552 -3.09876 -11.28627 -22.57971 -6.63725 -2.10667 -3.26533 41.96512 10.8917 5.49454 -27.47426 -6.93458 1.95921 3.19961
